<?xml version="1.0" encoding="UTF-8"?>
<svg id="Layer_2" data-name="Layer 2" xmlns="http://www.w3.org/2000/svg" xmlns:xlink="http://www.w3.org/1999/xlink" viewBox="0 0 1245.46 218.09">
  <defs>
    <style>
      .cls-1 {
        fill: url(#linear-gradient);
        stroke-width: 0px;
      }

      .cls-2 {
        fill: #fff;
        font-family: Impact, Impact;
        font-size: 177.91px;
        isolation: isolate;
        letter-spacing: .04em;
      }
    </style>
    <linearGradient id="linear-gradient" x1="1143.84" y1="289.62" x2="1307.96" y2="289.62" gradientTransform="translate(-91.11 154.55) rotate(10.84) scale(1 -1)" gradientUnits="userSpaceOnUse">
      <stop offset="0" stop-color="#e4ff2c"/>
      <stop offset=".33" stop-color="#9dff6e" stop-opacity=".96"/>
      <stop offset="1" stop-color="aqua" stop-opacity=".89"/>
    </linearGradient>
  </defs>
  <g id="Layer_1-2" data-name="Layer 1">
    <g>
      <text class="cls-2" transform="translate(0 159.28) scale(1.03 1)"><tspan x="0" y="0">Branding Pro</tspan></text>
      <path class="cls-1" d="m1242.06,131.8l-65.12-.18c.04.23.03.47-.02.71-.32,1.89-2.73,3.21-5.39,2.96l-.11-.02.54,19.23c.03,1.27-1.43,2.31-3.29,2.3l-64.69-.18c-1.91,0-3.47-1.06-3.5-2.37l-.56-20.1c-.03-1.31,1.48-2.36,3.38-2.35l64.14.17c-.13-.39-.16-.8-.09-1.22.33-1.95,2.83-3.32,5.55-3.05.26.02.51.07.76.12l-.53-19.3c-.97.25-2.06.26-3.15-.07-1.74-.54-2.86-1.9-2.71-3.3.05-.5.24-.96.54-1.35h-.49l-64.19-.17c-1.83,0-3.32-1.02-3.36-2.28l-.53-19.29c-.03-1.26,1.41-2.26,3.24-2.26l64.2.19c-.02-.24-.01-.47.03-.71.33-1.91,2.78-3.26,5.46-3,.07,0,.13,0,.19.02l-.49-18.04c-.95.38-2.07.53-3.2.37-2.45-.35-4.12-2.01-3.96-3.83l-63.34-1.05c-1.84-.03-3.38-1.03-3.45-2.24l-1.03-18.58c-.08-1.21,1.38-2.16,3.21-2.13l63.61,1.06c1.87.03,3.45,1.06,3.51,2.28l.98,17.72c.72-.16,1.51-.19,2.29-.08,2.12.31,3.64,1.57,3.94,3.08.24-.04.5-.07.76-.06l65.25.18c1.83,0,3.32,1.02,3.36,2.27l.53,19.29c.03,1.26-1.41,2.26-3.25,2.26l-64.43-.18c.13.39.17.81.09,1.23-.33,1.94-2.82,3.32-5.56,3.06-.23-.02-.46-.06-.68-.11l.54,19.46c0,.25-.03.49-.13.71.5-.07,1.01-.07,1.54,0,2.4.35,3.95,2.07,3.51,3.86.17-.02.33-.02.51-.03l64.9.18c1.9.02,3.46,1.06,3.5,2.37l.56,20.07c0,1.34-1.51,2.39-3.4,2.38Z"/>
    </g>
  </g>
</svg>