<?xml version="1.0" encoding="UTF-8"?>
<svg id="Layer_2" data-name="Layer 2" xmlns="http://www.w3.org/2000/svg" xmlns:xlink="http://www.w3.org/1999/xlink" viewBox="0 0 161.37 166.47">
  <defs>
    <style>
      .cls-1 {
        fill: url(#linear-gradient);
      }

      .cls-1, .cls-2 {
        stroke-width: 0px;
      }

      .cls-2 {
        fill: url(#linear-gradient-2);
      }
    </style>
    <linearGradient id="linear-gradient" x1="186.94" y1="-90.41" x2="374.49" y2="-190.71" gradientTransform="translate(-113.08 151.99) rotate(-3.53) scale(.68 .65)" gradientUnits="userSpaceOnUse">
      <stop offset="0" stop-color="aqua" stop-opacity=".89"/>
      <stop offset="1" stop-color="#e4ff2c"/>
    </linearGradient>
    <linearGradient id="linear-gradient-2" x1="210.21" y1="17.35" x2="403.1" y2="-88.25" gradientTransform="translate(-113.08 151.99) rotate(-3.53) scale(.68 .65)" gradientUnits="userSpaceOnUse">
      <stop offset="0" stop-color="aqua"/>
      <stop offset=".21" stop-color="#2affd7" stop-opacity=".98"/>
      <stop offset=".67" stop-color="#94ff75" stop-opacity=".94"/>
      <stop offset="1" stop-color="#e6ff2a" stop-opacity=".91"/>
    </linearGradient>
  </defs>
  <g id="Layer_1-2" data-name="Layer 1">
    <g>
      <path class="cls-1" d="m143.9,33.54l-65.56,12.39c.23.5.38,1.05.41,1.63.17,2.68-1.97,5-4.76,5.17-.24.01-.47.02-.7,0l5.51,26.05c.37,1.76-.87,3.48-2.78,3.83l-66.1,12.49c-1.91.36-3.75-.77-4.12-2.53L.07,65.46c-.37-1.76.87-3.48,2.78-3.84l65.95-12.45c-.09-.31-.14-.64-.16-.98-.17-2.68,1.97-5,4.76-5.17.06,0,.13,0,.19,0l-5.63-26.62c-.37-1.76.87-3.48,2.78-3.84L136.82.07c1.91-.36,3.75.77,4.12,2.53l5.74,27.11c.37,1.76-.88,3.48-2.78,3.83Z"/>
      <path class="cls-2" d="m158.52,104.85l-66.03,12.48c.09.31.15.65.17.98.17,2.68-1.97,5-4.76,5.17-.04,0-.07,0-.12,0l5.63,26.59c.37,1.76-.87,3.48-2.78,3.84l-66.1,12.49c-1.91.36-3.75-.78-4.12-2.54l-5.74-27.11c-.37-1.76.88-3.48,2.78-3.83l65.48-12.37c-.23-.5-.37-1.04-.4-1.62-.17-2.68,1.97-5,4.76-5.17.26-.02.53-.01.78.02l-5.52-26.09c-.37-1.76.87-3.48,2.78-3.83l66.1-12.49c1.91-.36,3.75.77,4.12,2.53l5.74,27.11c.37,1.76-.87,3.48-2.78,3.84Z"/>
    </g>
  </g>
</svg>