<?xml version="1.0" encoding="UTF-8"?>
<svg id="Layer_2" data-name="Layer 2" xmlns="http://www.w3.org/2000/svg" xmlns:xlink="http://www.w3.org/1999/xlink" viewBox="0 0 1315.71 242.81">
  <defs>
    <style>
      .cls-1 {
        fill: url(#linear-gradient);
        stroke-width: 0px;
      }

      .cls-2 {
        letter-spacing: 0em;
      }

      .cls-3 {
        fill: #fff;
        font-family: FranklinGothic-Medium, 'Franklin Gothic Medium';
        font-size: 193px;
        font-weight: 500;
      }
    </style>
    <linearGradient id="linear-gradient" x1="-1.79" y1="113.61" x2="155.45" y2="113.61" gradientTransform="translate(10.33 -21.93) rotate(10.84)" gradientUnits="userSpaceOnUse">
      <stop offset="0" stop-color="#e4ff2c"/>
      <stop offset=".33" stop-color="#9cff6d" stop-opacity=".97"/>
      <stop offset="1" stop-color="aqua" stop-opacity=".89"/>
    </linearGradient>
  </defs>
  <g id="Layer_1-2" data-name="Layer 1">
    <g>
      <text class="cls-3" transform="translate(157.24 160.91)"><tspan x="0" y="0">Branding P</tspan><tspan class="cls-2" x="909.59" y="0">r</tspan><tspan x="972.45" y="0">o</tspan></text>
      <text/>
      <path class="cls-1" d="m134.14,144.31l-60.01-.22c.04.29.03.58-.02.88-.3,2.34-2.53,3.98-5,3.67l-.1-.02.5,23.84c.03,1.58-1.33,2.87-3.05,2.85l-60.05-.22c-1.77,0-3.22-1.32-3.25-2.94l-.52-24.93c-.03-1.62,1.37-2.93,3.14-2.91l59.46.21c-.12-.47-.15-.97-.08-1.48.3-2.37,2.57-4.03,5.05-3.71.24.03.46.08.69.14l-.48-23.44c-.88.3-1.87.32-2.86-.08-1.58-.65-2.6-2.31-2.46-4.01.05-.61.22-1.16.49-1.64-.03,0-.06,0-.09,0l-60.07-.21c-1.71,0-3.11-1.28-3.14-2.85l-.5-24.11c-.03-1.57,1.32-2.83,3.03-2.83l59.7.23c-.02-.29-.01-.58.03-.87.3-2.34,2.54-3.98,5-3.67.06.01.12.01.17.03l-.45-22.05c-.87.47-1.89.65-2.93.45-2.24-.43-3.77-2.46-3.62-4.68l-58.57-1.29c-1.7-.04-3.12-1.27-3.18-2.76L0,22.82c-.07-1.49,1.27-2.66,2.96-2.62l58.88,1.29c1.7.04,3.13,1.28,3.19,2.76l.89,21.49c.65-.2,1.37-.23,2.08-.1,1.92.37,3.3,1.9,3.58,3.73.22-.05.45-.08.69-.07l60.37.22c1.71,0,3.11,1.28,3.14,2.84l.5,24.11c.03,1.57-1.32,2.83-3.04,2.83l-59.57-.22c.12.47.15.98.08,1.49-.3,2.36-2.56,4.03-5.05,3.71-.21-.03-.42-.07-.62-.13l.49,23.62c0,.3-.03.6-.12.86.45-.08.92-.08,1.4.01,2.18.42,3.59,2.51,3.19,4.68.15-.02.3-.03.46-.04l60.01.22c1.77.02,3.22,1.32,3.25,2.94l.52,24.92c.03,1.62-1.37,2.93-3.13,2.92Z"/>
    </g>
  </g>
</svg>